<svg width="34" height="34" viewBox="0 0 34 34" fill="none" xmlns="http://www.w3.org/2000/svg">
<path fill-rule="evenodd" clip-rule="evenodd" d="M17 34C26.3888 34 34 26.3888 34 17C34 7.61116 26.3888 0 17 0C7.61116 0 0 7.61116 0 17C0 26.3888 7.61116 34 17 34ZM21.25 11.15H14.5C14.0858 11.15 13.75 11.4858 13.75 11.9C13.75 12.3142 14.0858 12.65 14.5 12.65H19.4393L11.3697 20.7197C11.0768 21.0126 11.0768 21.4874 11.3697 21.7803C11.6626 22.0732 12.1374 22.0732 12.4303 21.7803L20.5 13.7107V18.65C20.5 19.0642 20.8358 19.4 21.25 19.4C21.6642 19.4 22 19.0642 22 18.65L22 11.9C22 11.4858 21.6642 11.15 21.25 11.15Z" fill="#B20000"/>
</svg>
